<svg id="Слой_1" data-name="Слой 1" xmlns="http://www.w3.org/2000/svg" xmlns:xlink="http://www.w3.org/1999/xlink" viewBox="0 0 1024 1024"><defs><style>.cls-1{fill:#ffbe3d;}.cls-2{fill:#d9e9fe;}.cls-3{fill:#1c468a;}.cls-4{fill:#e0e0e0;}.cls-5{fill:#fafafa;}.cls-6{fill:#ebebeb;}.cls-7{fill:#f5f5f5;}.cls-8{fill:#e8505b;}.cls-9{fill:#fff;}.cls-10{fill:#455a64;}.cls-11{fill:#263238;}.cls-12{fill:#e6e6e6;}.cls-13{fill:#ffbf29;}.cls-14{fill:#3f3d56;}.cls-15{fill:#e5a638;}.cls-16{clip-path:url(#clip-path);}.cls-17{fill:#e9b899;}.cls-18{fill:#dbaa90;}.cls-19{fill:#392f29;}.cls-20{fill:#29266b;}.cls-21{fill:#2b79e6;}.cls-22{fill:#ff9f9f;}.cls-23{fill:#8cb3de;}.cls-24{fill:#fc9490;}.cls-25{fill:#163560;}.cls-26{fill:#e37970;}.cls-27{fill:#ff8585;}.cls-28{fill:#fb7369;}.cls-29{fill:#e7f1fd;}.cls-30{fill:#f2564b;}.cls-31{fill:#c45446;}.cls-32{fill:#474b70;}.cls-33{fill:#493c34;}.cls-34{fill:#404059;}.cls-35{fill:#2f2e41;}.cls-36{fill:#575a89;}.cls-37{opacity:0.08;}</style><clipPath id="clip-path"><path class="cls-1" d="M438.5,462.3s-31.76-3.53-47.05-32.93S376.17,380,369.12,363.52s-23.52-32.92-27.05-35.28S325.61,320,315,316.48s-2.35-29.61-4.7-34.79,1.17-5.4-24.7,0S135.11,361.17,118.64,427s-22.35,214-9.4,257.52,10.58,84.68,43.5,92.91,191.68,16.46,216.38,5.88,60-61.15,60-61.15L351.47,607.89,297.39,533s17.63-8.39,38.8-6,37.63,20,50.57,21.17,31.75-5.88,44.68-27,7.06-45.86,7.06-45.86Z"/></clipPath></defs><path class="cls-2" d="M892.17,1002.37s74.07,17.56,110.53-62C1050,837.11,983.61,739,869.08,732c-165.17-10.19-73.63-273.9-334.28-202.35-73.29,20.12-232.7-83.74-326.55,92.24C192.3,651.79,144.6,650.32,81,701.37c-112.1,90-71.75,302,22.71,302.91S892.17,1002.37,892.17,1002.37Z"/><rect class="cls-3" x="2.32" y="1002.4" width="1031.31" height="2.19" rx="0.09"/><rect class="cls-4" x="96.35" y="56.1" width="230.43" height="151.5" transform="translate(79.71 343.42) rotate(-90)"/><rect class="cls-5" x="104.14" y="62.65" width="214.28" height="138.53" transform="translate(79.36 343.19) rotate(-90)"/><rect class="cls-4" x="176.62" y="112.86" width="69.9" height="38.12" transform="translate(79.65 343.48) rotate(-90)"/><rect class="cls-4" x="720.63" y="209.8" width="5.92" height="52.84"/><rect class="cls-4" x="915.24" y="209.8" width="5.92" height="52.84"/><rect class="cls-6" x="698.82" y="188.56" width="247.49" height="21.24"/><rect class="cls-7" x="863.3" y="29.53" width="34.12" height="159.03"/><path class="cls-4" d="M887.8,150.41a6.76,6.76,0,1,1-6.76-6.76A6.76,6.76,0,0,1,887.8,150.41Z"/><rect class="cls-4" x="875.53" y="71.66" width="10.44" height="64.99"/><rect class="cls-6" x="828.64" y="29.53" width="34.12" height="159.03"/><path class="cls-5" d="M853.14,150.41a6.76,6.76,0,1,1-6.76-6.76A6.76,6.76,0,0,1,853.14,150.41Z"/><rect class="cls-5" x="840.87" y="71.66" width="10.44" height="64.99"/><rect class="cls-4" x="795.63" y="29.53" width="34.12" height="159.03"/><path class="cls-5" d="M820.14,150.41a6.76,6.76,0,1,1-6.76-6.76A6.76,6.76,0,0,1,820.14,150.41Z"/><rect class="cls-5" x="807.86" y="71.66" width="10.44" height="64.99"/><polygon class="cls-4" points="753.44 186.13 794.43 46.24 780.3 40.04 738.25 181.07 753.44 186.13"/><circle class="cls-8" cx="520.06" cy="218.32" r="102.43"/><path class="cls-9" d="M520.06,303.57a85.25,85.25,0,1,1,85.25-85.25A85.35,85.35,0,0,1,520.06,303.57Zm0-155.91a70.66,70.66,0,1,0,70.66,70.66A70.74,70.74,0,0,0,520.06,147.66Z"/><path class="cls-9" d="M519.49,247.47a31.4,31.4,0,1,1,31.39-31.4A31.43,31.43,0,0,1,519.49,247.47Zm0-48.21a16.81,16.81,0,1,0,16.8,16.81A16.83,16.83,0,0,0,519.49,199.26Z"/><polygon class="cls-10" points="519.49 216.07 479.8 216.07 486.72 228.31 393.3 271.13 396.45 276.38 490.18 234.06 496.6 246.22 519.49 216.07"/><path class="cls-11" d="M393.3,271.13l-1-1a19,19,0,0,0-18.55-4.63L336.5,276.38l20.75,9.12-8.34,22.17,35-12.47a19,19,0,0,0,12.58-18.82h0Z"/><path class="cls-12" d="M747.8,627.74c3.73,18.43,5.1,42.77,3.76,66l37.29-79.54c-24.73,2.52-58.59-64.52-67-105.82-8.51-42,12.27-82.2,29.57-85.22,11.68-2,51.89,24.94,60.42,66.95,3.94,19.42,4.89,46.28,2.35,70.05L852,479.55a8.4,8.4,0,0,1-.62-.89c-16.78-.23-39-44.65-44.64-72.23-5.81-28.66,8.37-56.06,20.15-58.12,8-1.39,35.39,17,41.22,45.66,2.69,13.28,3.32,31.63,1.57,47.88l25.2-53.73a6.57,6.57,0,0,1-1.42-.47c-10.85-5.94-2.26-42.57,7.78-60.94s30.46-26.8,37.86-22.49c5,2.92,11.51,25.64,1.47,44-9.23,16.86-32,40.94-44.11,40.17-6.47,15.56-15,36.05-24.89,59.91,14.57-9.89,33.67-18.64,48.24-22.39,28.33-7.26,56.42,5.5,59.07,17.17,1.81,7.89-15.18,36.22-43.5,43.5-23.21,5.95-62.64,6.35-78.52-2.92-13.66,32.87-28.93,69.62-44.57,107.14,20.08-20.4,61.59-41.49,90.71-49,41.53-10.66,82.72,8.06,86.61,25.17,2.63,11.57-22.25,53.1-63.78,63.76-40.7,10.43-115.48,9.25-124.38-13.92-17.75,42.62-35.54,85.28-51.51,123.49,23.33-22.64,69-45.66,101.31-54,47.12-12.09,93.84,9.13,98.27,28.55,3,13.15-25.25,60.26-72.39,72.37-45.53,11.68-128.7,10.52-140.7-14.72C710.12,835.36,691.37,879.73,690.78,880l-19.93-14.05,45.8-97.68c-27.45-5.73-62-75.69-70.95-119.79-9.69-47.67,13.9-93.26,33.54-96.69C692.48,549.45,738.13,580.06,747.8,627.74Z"/><path class="cls-12" d="M136.05,514.21c11.29,8.14,24.26,20.67,35.19,34L151.6,486.27c-12.18,13.77-64.22-5.67-89.51-23.9-25.71-18.56-34.58-50.82-26.69-61.14,5.33-7,40.72-12.48,66.43,6.07,11.88,8.57,25.87,22.69,36.42,36.88l-19.91-62.79c-.28-.05-.54-.1-.79-.17-9.23,8.29-43.62-4.67-60.49-16.86-17.55-12.66-23.58-34.66-18.21-41.7,3.63-4.76,27.76-8.51,45.31,4.14,8.12,5.86,17.67,15.52,24.87,25.23L95.75,310.19a4.2,4.2,0,0,1-1,.45c-8.88,2.22-22.59-22-26.35-37s3.1-29.86,9.29-31.22c4.17-.92,19.13,8.16,22.87,23.17,3.45,13.79,3.13,38.32-3.81,44,4.29,11.69,9.95,27.09,16.53,45,3-12.69,8.94-27,15-36.37C140,300.05,161.69,292.9,169,297.91c4.94,3.38,9.92,27.3-1.81,45.46-9.64,14.88-30.86,34.89-44.13,37.81,9.07,24.72,19.19,52.36,29.54,80.6.65-21.16,12.64-53.46,24.72-72.13,17.22-26.64,49-37.13,59.68-29.78,7.24,5,14.56,40-2.66,66.66-16.88,26.08-58.11,63-74.58,54.83,11.74,32.07,23.48,64.18,34,93,1.31-24,14.61-59.46,28-80.15C241.25,464,277.3,452,289.44,460.38c8.21,5.64,16.51,45.41-3,75.64-18.88,29.2-64.66,70.31-83.83,62.6,17.2,47.31,29.25,80.83,29.06,81.26l-17.88,2.37-24.12-76.07C171.84,616.85,118,596.17,91,576.7,61.79,555.64,51.73,519,60.68,507.32,66.73,499.41,106.89,493.15,136.05,514.21Z"/><path class="cls-13" d="M1001.31,693.58c9.6,16.55,3.67,41.58-6.91,56.89-12.62,18.29-35.5,23.38-49.37,40-7.86,9.44-6.8,15.84-7.79,27.46-1.25,14.76-6.63,34.38-16.44,45.91-14.7,17.28-40.57,27.55-63.2,29.08-28.13,1.9-55.51-15.13-84.18-11.81-19.78,2.29-36.1,21.56-56.11,22.28-20.46.73-54.8-18.7-48.56-42.8,7.07-27.27,39.86-34.8,50.32-59,6-13.8,5.7-31,11.19-45.59,7.19-19.1,19.4-40.59,34.59-54.63,28.75-26.56,69.51-45.52,107.64-31,8.87,3.38,17.37,9.51,27.08,10.63,12.35,1.42,18-5.31,28.44-10.45,14.12-7,37.1-4.84,52.4,0,12.15,3.87,15,11.06,20.73,22.58-.48-1-1-1.94-1.44-2.9"/><line class="cls-14" x1="988.16" y1="700.13" x2="672.27" y2="880.47"/><line class="cls-14" x1="896.64" y1="849.3" x2="793.91" y2="811.03"/><line class="cls-14" x1="839.03" y1="705.01" x2="793.91" y2="811.03"/><line class="cls-14" x1="971.69" y1="750.03" x2="917.21" y2="740.63"/><line class="cls-14" x1="960.35" y1="686.28" x2="917.21" y2="740.63"/><line class="cls-14" x1="762.31" y1="864.29" x2="705.8" y2="861.33"/><line class="cls-14" x1="749.82" y1="801.46" x2="710.84" y2="858.45"/><path class="cls-12" d="M604.44,380.22c9.36-8.94,35.52-25.26,33.83-3-1,13.44-16.08,23.88-19.9,37.23,15.21-1.73,76-32.83,78.85,3,1.85,23.07-46,43.12-63.11,51.85,8.54-1.92,23.35.32,22.9,11.68-.43,10.45-21.46,19-29.07,23.63,14.14,4,30.31-1.35,35.13,16,3.77,13.56-6.28,26.18-15.22,34.74-9.6,9.19-20.8,15.72-29.43,26.11-9.8,11.81-13.14,24.7-21,37.69,7.83-34.69-35-58.17-55.74-77.59-11.18-10.43-70.42-64.73-27-70.25,8-1,64.87,37.43,54.76,8.83-4.55-12.81-28-22.09-37.38-31.74-7.4-7.57-21.87-23.36-23.16-34-2.3-18.73,17.3-26.86,32-22.08,12.63,4.14,21.9,18.25,35,19.45-.21-14.22-17.42-23-19-36.35-2.06-16.69,11.52-14,21.94-8.42-7.92-17.17.77-46.08,23.65-29.12,8.24,6.12,10.77,15.5,10,25.12-.53,6.57-4.18,19.62-7.64,17.15,1.19.21,3.19.28,4.28-.8"/><path class="cls-15" d="M104.3,858.29h333v89.08s-91.38,22.34-177,22.34-158.16-22.93-158.16-22.93Z"/><path class="cls-13" d="M144.51,816.25H394.45s43.27,39.23,43.27,42c0,14.3-74.64,25.89-166.71,25.89S104.3,872.59,104.3,858.29C104.3,855.67,144.51,816.25,144.51,816.25Z"/><path class="cls-15" d="M394.45,780.11v36.14c0,8.93-55.95,16.15-125,16.15s-125-7.22-125-16.15V780.11Z"/><path class="cls-13" d="M144.51,780.11c0,8.92,56,16.15,125,16.15s125-7.23,125-16.15S338.5,764,269.48,764,144.51,771.19,144.51,780.11Z"/><path class="cls-1" d="M438.5,462.3s-31.76-3.53-47.05-32.93S376.17,380,369.12,363.52s-23.52-32.92-27.05-35.28S325.61,320,315,316.48s-2.35-29.61-4.7-34.79,1.17-5.4-24.7,0S135.11,361.17,118.64,427s-22.35,214-9.4,257.52,10.58,84.68,43.5,92.91,191.68,16.46,216.38,5.88,60-61.15,60-61.15L351.47,607.89,297.39,533s17.63-8.39,38.8-6,37.63,20,50.57,21.17,31.75-5.88,44.68-27,7.06-45.86,7.06-45.86Z"/><g class="cls-16"><path class="cls-15" d="M296.35,863c86.29-50.11,59.55-185-33.26-210-28.2-7.58-59.91-4.92-84.48-20.7-32.87-21.15-39.5-67.09-32.67-105.58s23.64-75.23,25.22-114.28c2.76-68.29-63.3-113.94-125.09-123-67.95-10-138.7,19.9-184.75,70.87S-207.15,481-207.41,549.66c-.28,76.79,28,155.73,85.84,206.21A205.63,205.63,0,0,0-6.9,805c33.29,3.17,67.74-8.21,100.58-3,34.1,5.44,52.43,36.75,79.56,54.36,31.38,20.35,71.3,27.58,106.82,14.26A109.25,109.25,0,0,0,296.35,863Z"/></g><polygon class="cls-15" points="285.62 321.19 311.21 313.1 311.21 277.72 285.62 281.69 285.62 321.19"/><path class="cls-15" d="M438.5,462.3,415,472.88l-28.21,75.26s14.52,2.49,25.87-7.25,24.92-26.44,25.87-35.53S438.5,462.3,438.5,462.3Z"/><polygon class="cls-15" points="380.88 733.94 429.09 722.18 297.39 533.03 263.29 539.91 380.88 733.94"/><path class="cls-14" d="M525.47,649.25A145.1,145.1,0,1,0,702.8,752.51,145.09,145.09,0,0,0,525.47,649.25ZM582,863.3a76.3,76.3,0,1,1,54.3-93.24A76.32,76.32,0,0,1,582,863.3Z"/><path class="cls-14" d="M566.68,673.23l-63.23,16.7s-24.14-47.56-16.17-61.25c8.22-14.14,50.05-26.36,63.21-16.69C563.28,621.35,566.68,673.23,566.68,673.23Z"/><path class="cls-14" d="M618,891.64l-63.24,16.69s2.49,53.28,16.17,61.28c14.12,8.22,56.54-1.79,63.23-16.72C640.65,938.45,618,891.64,618,891.64Z"/><path class="cls-14" d="M478.43,705.17,453,765.4s-52.4-10-58.37-24.69c-6.15-15.14,9.76-55.7,25.47-60.21C435.3,676.13,478.43,705.17,478.43,705.17Z"/><path class="cls-14" d="M450.9,794l6.15,65.11s-50.87,16.06-63.08,6c-12.6-10.42-17.85-53.68-6.15-65.11C399.16,788.91,450.9,794,450.9,794Z"/><path class="cls-14" d="M679.36,796.62l-14.13-63.86s48.54-22.19,61.87-13.68c13.78,8.8,24.29,51.1,14.1,63.89C731.32,795.33,679.36,796.62,679.36,796.62Z"/><path class="cls-14" d="M592.2,673l51.9,39.81s40.61-34.55,38.56-50.27c-2.14-16.21-36-43.65-51.88-39.8C615.39,626.46,592.2,673,592.2,673Z"/><path class="cls-14" d="M523,912,471.1,872.21s-40.66,34.55-38.57,50.26c2.13,16.2,36,43.64,51.88,39.79C499.82,958.56,523,912,523,912Z"/><path class="cls-14" d="M649.66,880.67l25.48-60.22s52.4,10,58.33,24.66c6.16,15.15-9.74,55.73-25.47,60.24C692.77,909.73,649.66,880.67,649.66,880.67Z"/><path class="cls-14" d="M470.05,538.92a34.1,34.1,0,1,0,41.68,24.27A34.1,34.1,0,0,0,470.05,538.92Zm13.29,50.31a17.93,17.93,0,1,1,12.75-21.92A18,18,0,0,1,483.34,589.23Z"/><path class="cls-14" d="M479.74,544.56l-14.86,3.92s-5.68-11.18-3.8-14.39,11.76-6.2,14.85-3.93S479.74,544.56,479.74,544.56Z"/><path class="cls-14" d="M491.8,595.88l-14.86,3.93s.58,12.52,3.8,14.4,13.29-.42,14.86-3.93S491.8,595.88,491.8,595.88Z"/><path class="cls-14" d="M459,552.06l-6,14.16s-12.31-2.35-13.71-5.81,2.29-13.09,6-14.15S459,552.06,459,552.06Z"/><path class="cls-14" d="M452.53,572.94l1.44,15.3s-12,3.78-14.82,1.4S435,577,437.7,574.34,452.53,572.94,452.53,572.94Z"/><path class="cls-14" d="M506.22,573.55l-3.32-15s11.4-5.22,14.54-3.22,5.71,12,3.31,15S506.22,573.55,506.22,573.55Z"/><path class="cls-14" d="M485.73,544.5l12.2,9.36s9.55-8.12,9.06-11.81-8.46-10.26-12.19-9.36S485.73,544.5,485.73,544.5Z"/><path class="cls-14" d="M469.47,600.67l-12.2-9.35s-9.55,8.12-9.06,11.81,8.46,10.26,12.19,9.35S469.47,600.67,469.47,600.67Z"/><path class="cls-14" d="M499.24,593.31l6-14.16s12.31,2.35,13.71,5.8-2.29,13.1-6,14.16S499.24,593.31,499.24,593.31Z"/><path class="cls-17" d="M201.6,655.42s4.05,1.39,8.72,2.45C216.73,659.31,232,664,228,660a13.69,13.69,0,0,1-3.81-6.82v0a1.19,1.19,0,0,1,0-.46,78.46,78.46,0,0,1,.89-10.47L201.6,640.8v.28C201.37,648.24,201.6,655.42,201.6,655.42Z"/><path class="cls-18" d="M201.59,655.42a76.33,76.33,0,0,0,7.72,2.45l.07,0s11.43-2.06,12.22-4.67v0a1.19,1.19,0,0,1,0-.46,2,2,0,0,0-1-1.11c-2.95-1.87-7.64-2.74-11.14-3.14a5.25,5.25,0,0,1-4.63-5.3c0-.93,0-1.61,0-1.61l-3.31-.46C201.38,648.24,201.59,655.42,201.59,655.42Z"/><path class="cls-17" d="M195,607c2.5-15.59,15.47-20.11,26.25-18.76s15,9.62,17.14,17.71c0,0,.15,3.77,0,8.79a43.33,43.33,0,0,0,.83,9.3c.51,2.52,1.34,3.64,1.11,5.29s-3.66,1-4.14,2.07c-.19,2.77.47,10.19-.58,12.27-2.87,5.67-14,2.88-14,2.88l.05-.14a37.34,37.34,0,0,1-12.77-1.32C190.65,640.47,192.84,620.14,195,607Z"/><path class="cls-18" d="M234.65,606.2s-5.65.23-6.32,5.52.77,6.45-2.12,8.28-5.11,1.54-5.5,3.85-.24,13.68-2.86,16.94S211,613.07,211,613.07L218.51,603Z"/><path class="cls-19" d="M231.21,606.52c-4.93.39-4.81,9.82-5,11.36-.11.84-2.72,1.41-4.61,2.15s-2.49,2.92-2.5,4.87c0,6.13-.44,18.56-3.14,19.45-3.58,1.19-14.42,1.88-15.69.14s-9.63-11.41-8.23-29.65c1.38-17.94,3.45-20,10.35-25.53,4.21-3.36,17.94-3.45,22.07-2.07,9.12,3,11.74,3.49,13.8,9.66C239.64,601,239.64,605.87,231.21,606.52Z"/><rect class="cls-5" x="273.06" y="595.39" width="197.73" height="186.66" rx="7.88"/><path class="cls-11" d="M462.91,782.05a11.87,11.87,0,0,0,1.92-.29,7.89,7.89,0,0,0,4.53-3.21,7.74,7.74,0,0,0,1.31-3.9c0-1.54,0-3.24,0-5.08q0-5.52,0-12.7c0-19.12-.07-46.77-.13-80.93,0-17.08,0-35.79-.05-55.88q0-7.53,0-15.32a11.66,11.66,0,0,0-.36-3.76,7.59,7.59,0,0,0-2-3.15,7.46,7.46,0,0,0-3.27-1.82,15,15,0,0,0-3.88-.25l-33,0-147,0a7.5,7.5,0,0,0-7.06,5,13.52,13.52,0,0,0-.42,4.67v4.83q0,9.66,0,19.18V667c0,24.59,0,48.3,0,70.89q0,16.95,0,33c0,1.33,0,2.71,0,4a7.51,7.51,0,0,0,7.65,6.83l15.32,0,55.89,0,80.92.13,22,.08,5.72,0c1.29,0,2,0,2,0s-.66,0-2,0l-5.72,0-22,.08-80.92.13-55.89,0-15.32,0a8.24,8.24,0,0,1-8.37-7.49c-.08-1.39,0-2.67,0-4q0-16,0-33c0-22.59,0-46.3,0-70.89V603a7.9,7.9,0,0,1,.46-2.5A8.33,8.33,0,0,1,281,595l147,0,33,0h2a8,8,0,0,1,2.07.28,8.1,8.1,0,0,1,3.58,2,8.3,8.3,0,0,1,2.17,3.45,12.09,12.09,0,0,1,.39,4q0,7.78,0,15.32c0,20.09,0,38.8-.05,55.88-.06,34.16-.1,61.81-.13,80.93q0,7.17,0,12.7c0,1.84,0,3.53-.05,5.09a7.86,7.86,0,0,1-6,7.18A6.35,6.35,0,0,1,462.91,782.05Z"/><rect class="cls-8" x="307.57" y="670.13" width="10.66" height="91.59"/><rect class="cls-8" x="356.01" y="662.7" width="10.66" height="99.02"/><rect class="cls-8" x="406.2" y="650.12" width="10.66" height="111.6"/><rect class="cls-20" x="382.62" y="717.12" width="10.66" height="44.6"/><rect class="cls-21" x="319.99" y="660.32" width="10.66" height="101.4"/><rect class="cls-22" x="369.31" y="639.07" width="10.66" height="122.64"/><rect class="cls-23" x="433.69" y="639.07" width="10.66" height="122.64"/><rect class="cls-21" x="420.43" y="614.85" width="10.66" height="146.87"/><rect class="cls-23" x="333.03" y="697.36" width="10.66" height="64.36"/><path class="cls-11" d="M459.6,767.27c0,.23-38,.42-85,.42s-84.95-.19-84.95-.42,38-.41,84.95-.41S459.6,767,459.6,767.27Z"/><rect class="cls-11" x="284.76" y="745.42" width="6.5" height="2.44"/><rect class="cls-11" x="284.76" y="712.83" width="6.5" height="2.44"/><rect class="cls-11" x="284.76" y="651.49" width="6.5" height="2.44"/><rect class="cls-11" x="284.76" y="620.66" width="6.5" height="2.44"/><rect class="cls-11" x="285.09" y="682.16" width="6.5" height="2.44"/><rect class="cls-9" x="535.65" y="483.62" width="367.91" height="286.33"/><path class="cls-11" d="M903.56,770c0-2.86-.14-113.55-.34-286.34l.34.34L535.68,484h0l.42-.42c0,103.21,0,200.83-.05,286.33l-.37-.37,367.91.38-367.91.37h-.37V770c0-85.5,0-183.12,0-286.33v-.42h.45l367.88.08h.34v.34C903.7,656.41,903.56,767.1,903.56,770Z"/><path class="cls-11" d="M644.37,734.87c-.23,0-.41-28.89-.41-64.52s.18-64.53.41-64.53.42,28.89.42,64.53S644.6,734.87,644.37,734.87Z"/><path class="cls-11" d="M792.61,734.87c-.23,0-.41-28.89-.41-64.52s.18-64.53.41-64.53.42,28.89.42,64.53S792.84,734.87,792.61,734.87Z"/><path class="cls-11" d="M695,734.87c-.23,0-.41-36.93-.41-82.48s.18-82.5.41-82.5.42,36.93.42,82.5S695.21,734.87,695,734.87Z"/><path class="cls-11" d="M592.4,734.87c-.23,0-.42-36.93-.42-82.48s.19-82.5.42-82.5.41,36.93.41,82.5S592.63,734.87,592.4,734.87Z"/><path class="cls-11" d="M850.8,734.87c-.23,0-.42-36.93-.42-82.48s.19-82.5.42-82.5.41,36.93.41,82.5S851,734.87,850.8,734.87Z"/><path class="cls-11" d="M739.36,734.87c-.23,0-.42-42.64-.42-95.24s.19-95.25.42-95.25.42,42.63.42,95.25S739.59,734.87,739.36,734.87Z"/><path class="cls-11" d="M645.58,605.82a1.21,1.21,0,1,1-1.21-1.21A1.21,1.21,0,0,1,645.58,605.82Z"/><path class="cls-11" d="M696.19,569.89a1.21,1.21,0,1,1-1.21-1.21A1.21,1.21,0,0,1,696.19,569.89Z"/><path class="cls-8" d="M695,574.2a4.31,4.31,0,1,1,4.31-4.31A4.32,4.32,0,0,1,695,574.2Zm0-8.22a3.91,3.91,0,1,0,3.91,3.91A3.92,3.92,0,0,0,695,566Z"/><circle class="cls-11" cx="739.36" cy="544.38" r="1.21"/><path class="cls-11" d="M793.82,607a1.21,1.21,0,1,1-1.21-1.21A1.21,1.21,0,0,1,793.82,607Z"/><path class="cls-11" d="M852,569.89a1.21,1.21,0,1,1-1.21-1.21A1.21,1.21,0,0,1,852,569.89Z"/><path class="cls-11" d="M593.61,571.1a1.21,1.21,0,1,1-1.21-1.21A1.21,1.21,0,0,1,593.61,571.1Z"/><path class="cls-8" d="M862.26,628.28c0,.14-1.33.33-3.67,1.32a26.49,26.49,0,0,0-8.74,6.73c-3.28,3.57-6.56,8.56-10.7,14.18a69.28,69.28,0,0,1-7.31,8.53,41.6,41.6,0,0,1-4.77,4,33.94,33.94,0,0,1-5.76,3.16,32.39,32.39,0,0,1-13.81,2.35,37,37,0,0,1-7.43-.91,19.63,19.63,0,0,1-7.24-3.18,23.23,23.23,0,0,1-5.65-5.88c-1.55-2.24-2.94-4.6-4.28-7-2.66-4.82-5.43-9.63-8.56-14.5s-6-10.12-9.15-15.22a75,75,0,0,0-11.14-14.35,32.15,32.15,0,0,0-7.44-5.29,29.11,29.11,0,0,0-4.25-1.73c-.74-.19-1.5-.33-2.25-.5l-1.13-.24a8.93,8.93,0,0,0-1.16-.1,32,32,0,0,0-18.28,3.89c-5.61,3.19-10.14,8-14,13a144.48,144.48,0,0,0-10.06,16.14c-6.08,11-12.79,21.52-21.66,29.39-4.45,3.85-9.52,7-15.08,8.39a28.83,28.83,0,0,1-8.33.91,31.16,31.16,0,0,1-8-1.49,53.27,53.27,0,0,1-13.39-7c-4-2.74-7.58-5.57-11.1-8.12a59.89,59.89,0,0,0-10.5-6.39,34.8,34.8,0,0,0-10.42-3,25.9,25.9,0,0,0-9.37.57,16,16,0,0,0-2,.65,12.7,12.7,0,0,0-1.9.74,24.83,24.83,0,0,0-3.32,1.82,36.65,36.65,0,0,0-5,4c-1.23,1.39-2.39,2.48-3.16,3.51a23.35,23.35,0,0,1-2.48,3,23.17,23.17,0,0,1,2.08-3.35c.71-1.08,1.83-2.25,3-3.72a34.86,34.86,0,0,1,5-4.26,24.35,24.35,0,0,1,3.4-2,13.26,13.26,0,0,1,2-.83,15.86,15.86,0,0,1,2.11-.72,26.6,26.6,0,0,1,9.82-.82,36,36,0,0,1,10.93,2.93A59.92,59.92,0,0,1,619,653.33c3.59,2.53,7.23,5.3,11.16,7.95a51.68,51.68,0,0,0,12.94,6.64,29.18,29.18,0,0,0,7.42,1.33,27,27,0,0,0,7.69-.9c5.12-1.3,9.87-4.29,14.11-8,8.47-7.58,15-17.89,21-28.85a144.94,144.94,0,0,1,10.2-16.44c3.95-5.25,8.69-10.29,14.73-13.73a34.49,34.49,0,0,1,19.77-4.18c.42,0,.85,0,1.26.11l1.25.27c.83.18,1.66.34,2.47.55a31.84,31.84,0,0,1,4.66,1.91,34.56,34.56,0,0,1,8,5.71,77.2,77.2,0,0,1,11.48,14.87c3.21,5.18,6,10.39,9.08,15.26s5.92,9.86,8.53,14.65,5.23,9.44,9.21,12.26a17.65,17.65,0,0,0,6.52,2.91,34.94,34.94,0,0,0,7,.94,30.9,30.9,0,0,0,13.07-2.06,31.43,31.43,0,0,0,5.48-2.91,39,39,0,0,0,4.62-3.73,69.1,69.1,0,0,0,7.3-8.23c4.21-5.48,7.64-10.44,11.1-14a25.54,25.54,0,0,1,9.26-6.52,14.85,14.85,0,0,1,2.86-.76A3,3,0,0,1,862.26,628.28Z"/><rect class="cls-11" x="591.19" y="521.24" width="59.56" height="3.31"/><rect class="cls-11" x="591.19" y="528.99" width="29.43" height="3.31"/><rect class="cls-14" x="535.65" y="475.27" width="367.91" height="23"/><polygon class="cls-24" points="899.46 956.08 893.2 982.44 883.82 982.39 883.48 956.08 899.46 956.08"/><polygon class="cls-24" points="820.58 957.2 802.77 982.44 795.83 973.53 806.55 953.73 820.58 957.2"/><path class="cls-25" d="M863.82,670.36c-1.19-2.47-2.53-6.85-3.18-14.67.1.78,1.44,10.64,5.24,16.22,15.57,10.22,45.42,44.37,44.83,50.84,0,0,3.3-3.1,8.08-7.49l1.1-6.65a13,13,0,0,1,.61,5.07c8.94-8.19,21.76-19.74,28.62-24.95-.86-2.8-3.15-7.67-3.22-7.85,2,.56,4.37,4.23,5.52,6.18.2-.14.39-.26.57-.37,0,0-2-16.12-25.27-28.15-12.18-6.31-20.53-8.92-20-16.93s-3.19-42.47-26.59-33.45c0,0-3.76-1.67-5.44-1.42a4.65,4.65,0,0,1,2.07,1,18.18,18.18,0,0,0-9.83,1.88C858.31,614.48,850.63,658.22,863.82,670.36Z"/><path class="cls-24" d="M866.8,672.42c-.08,0,7.52,4,13.23,2.41,5.38-1.46,8.89-8.43,8.82-8.45-2.28-.45-2.94-3.58-2.89-17l-1,.2L867.63,653s.39,5.44.4,10.57C868,667.87,867.78,672,866.8,672.42Z"/><path class="cls-26" d="M886.37,615.25s-8.54-9.09-19.26-.46C867.11,614.79,873.35,613.71,886.37,615.25Z"/><path class="cls-27" d="M867.63,653s.39,5.44.4,10.57c9.69-.27,14.8-9.1,16.9-14Z"/><path class="cls-25" d="M886.72,647.68s5.07-8,6.29-14.88c.87-4.89-1.62-23-19.85-20.42a24.79,24.79,0,0,0-10.28,3.88c-4,2.67-9.67,8.45-3.28,24.28l1.66,5.35Z"/><path class="cls-28" d="M798.66,966.61l9.17.28,9.93.3s22.93-25.53,35.8-66.46c.3-1,.61-1.92,1-2.89,7-20.53,21.63-46.3,29.32-69.62,1.23-3.72,2.33-7.21,3.31-10.52.32-1.06.63-2.1.92-3.13,5.67-19.69,7.31-32.62,8.82-46.44l-55.54.45S832.38,862.91,798.66,966.61Z"/><path class="cls-29" d="M849.12,736.66c.14,26.43-3.88,37.77-3.88,37.77a74.64,74.64,0,0,0,52,3.19c.34-.11,23.4-5.37,23.4-5.37-.47-1.07-4.67-18.88-5.14-19.86-6-12.82-10.49-18.44-11.2-22.38a84.07,84.07,0,0,1-.69-22.14,178.27,178.27,0,0,1,6.85-34.77c-7.7-1.75-15.11-4.75-23.12-7.76-1.85,2.3-7.28,4.62-12.17,4.51-5.63-.12-7.39-2.5-7.18-5.19-6,3.34-10.77,6.52-10.77,6.52-5.1,8.85-15.44,17.46-16.19,31C840.89,705.56,849.11,735.92,849.12,736.66Z"/><path class="cls-30" d="M896.88,739.61c2.43,3.43,7.08,24.32,18.66,26.94-6-14.88-10.49-21.41-11.2-26a113.32,113.32,0,0,1-.69-25.72c-3.88-6.8-6.77-11.46-6.77-11.46-.3-1.09-6.16-19.2-8-3S894.17,735.76,896.88,739.61Z"/><path class="cls-24" d="M864.39,657.85s22.91.37,22.93-13.9,3-23.83-11.64-24.68-17.48,4.6-18.64,9.36S858.43,657.38,864.39,657.85Z"/><path class="cls-25" d="M857.72,620.7c3.53-4.29,6.21-3.36,7.71-2.07,5-7.4,20.6,3.3,20.6,3.3A27.28,27.28,0,0,0,894.94,638s-4.17,2.58-13.8.1c-7.58-1.95-13.07-12.73-15.07-17.24-1.36,1.22-4.24,4-5.1,6.76-1.14,3.63-1.66,11.11-3.84,10.86C857.13,638.52,852.41,627.14,857.72,620.7Z"/><path class="cls-24" d="M893.51,981a25.46,25.46,0,0,0,1.2,10.81s1.53,7-5.35,7.12-8.58-.52-7.8-4.81,2.26-11.7,2.26-11.7Z"/><path class="cls-31" d="M880.91,1002.33l0,0h14.25l0,0c.78-3.65-.49-10.54-.49-10.54-7.8,7.45-12.68-.19-12.68-.19C880.76,994.79,880.91,1002.33,880.91,1002.33Z"/><path class="cls-24" d="M779.23,995.12s12.7-14.42,16.6-21.59l9.44,4.84-21.1,19.82-4.94-.65Z"/><path class="cls-31" d="M771.45,1002.31h17.61c1.55-1.4,3-4.22,4.85-7.91,1-2.12,3.36-3.28,5.75-3.92v11.83h3.64l3.38-12.58c2.24-4.22.56-8.08-1-11.41-1.83,0-7.17,1.33-16.55,12.1-3.08,3.54-6.48,4.8-9.87,4.7a.37.37,0,0,1-.14.07C773.75,997.64,772,1000.66,771.45,1002.31Z"/><path class="cls-26" d="M772.3,681.53s15,8.41,20.41,10.83c1.91.87,5.37,2.48,8.91,4.13l6.16,2.89a7.76,7.76,0,0,0,9.19-2c8.14-9.51,29.22-30.12,51-32.7l.08,0v0h0l-.13.23c-1.22,3-13.15,32.85-13.52,39.14-.39,6.63-1.56,108.37-1.56,108.37s.78,4.68-8.19,2.73-11.3-3.9-11.3-3.9,8.58-62.76,6.24-84.59a48.45,48.45,0,0,1,.91-14.07c-13.26,8-28.88,11.6-28.88,11.6a131.17,131.17,0,0,1-14.89-8.15A94.22,94.22,0,0,1,784.18,706c-5.25-4.81-14.27-16.43-14.27-16.43Z"/><path class="cls-30" d="M807.83,966.89l9.93.3s22.93-25.53,35.8-66.46c.3-1,.61-1.92,1-2.89,7-20.53,21.63-46.3,29.32-69.62,1.23-3.72,2.33-7.21,3.31-10.52.32-1.06.63-2.1.92-3.13l-8.18-6.2s-24.55,39.76-32.16,77.18C841.12,918.05,814.67,957.16,807.83,966.89Z"/><path class="cls-28" d="M879,889c-.14,18.2.78,60,3.15,77.36H891c4.86,0,7.29-.07,7.29-.07,5.94-30.12,10.17-55,13.25-76.51,2.53-17.62,4.77-32.72,6.5-45.73s3-24,3.38-33.3c.07-1.46.12-2.88.14-4.25s0-2.73,0-4l-48-4.68C874.17,829.7,879.11,878.46,879,889Z"/><path class="cls-30" d="M891,966.39c4.86,0,7.29-.07,7.29-.07,5.94-30.12,10.17-55,13.25-76.51,2.53-17.62,4.77-32.72,6.5-45.73s3-24,3.38-33.3l-17.61,10.36s11.24,4,7,34S896.94,962.14,891,966.39Z"/><path class="cls-26" d="M888.71,810.48s3.38,12.22,15.07,10.66,28.33-8.58,28.33-8.58-5-15.79-11.22-36.54c-7.52-25.11-16.83-57.49-21.22-77.92a126.46,126.46,0,0,1-2.39-13.92l-9.9-18.84s-14.27,32.48-15,40.67S888.71,810.48,888.71,810.48Z"/><path class="cls-24" d="M846.94,715.15c5.63.74,7.79,3.73,8.48,7.76a17.09,17.09,0,0,0,2.45,5.85c5.61.3,19,1,30.18,1.74l.92,14.71a167.53,167.53,0,0,1-33.57-7.94,8.73,8.73,0,0,1-3.82-2.08c-8.08-6.61-12.66-17.69-12.68-19.28S841.31,714.41,846.94,715.15Z"/><path class="cls-31" d="M889.22,723.16c.53,13.26,3.64,39,31.45,52.76l.22.1c-7.52-25.11-16.83-57.49-21.22-77.92C894.56,705.74,888.94,715.86,889.22,723.16Z"/><path class="cls-26" d="M887.38,665.34s23.78,1.69,29.5,14.43,7.54,55.09.26,67.57c0,0-10,2.85-27.74-.46l-.65-.13s-5.65-13.84-.59-16.57c0,0,15,.78,13.39-4.15S887.38,665.34,887.38,665.34Z"/><path class="cls-24" d="M756.18,671.54c12.79-1.65,16,10,16,10l-2.39,8c-3.94.54-7.39-.49-10.57-5s-4.06-2.8-6.08-6.19C750.42,673.71,754.71,672,756.18,671.54Z"/><path class="cls-24" d="M792.71,692.36c1.91.87,5.37,2.48,8.91,4.13-1.89,3.36-4.26,9.46-4.89,19.56a81.88,81.88,0,0,1-12.93-10.42,170.46,170.46,0,0,1-13.89-16.11l2.39-8S787.34,689.94,792.71,692.36Z"/><path class="cls-24" d="M165.23,790.48s1.21,11.77,2.54,14,7,9.34,9.4,10.74-1.47-9.38-1-11.47,2,3.82,3,4,.79-5.19.83-7.13-5.17-6.73-7-10.85S165.23,790.48,165.23,790.48Z"/><path class="cls-24" d="M309.86,681.91l2.7-5.1s-1.34-9.1,10.06-14.85c0,0,4.16-1.7,6.52,1.7,2.16,3.13-4.13,2.56-3.79,7.91s-2.21,8.5-5.74,10.24l-2.93,3.39Z"/><path class="cls-32" d="M202.15,669.71s9.78,48,63.65,63.73c16.81,4.9,55-50.45,55-50.45s-1.34-5.11-9.76-3.93c0,0-37.19,24.62-41.87,27.29-4.16,2.38-31.48-30.51-43.94-35.81A31.79,31.79,0,0,0,202.15,669.71Z"/><path class="cls-33" d="M137.84,971.7s-6.68,6.1-5.38,10.43,7.34,7.22,8.15,12.52,4.08,8.18,7,8.18h14s2.16-3.72-3.06-4.85-7.18-7.34-6.86-13.12a101.75,101.75,0,0,0-.48-13.48l-11.09-2.57Z"/><path class="cls-33" d="M219.82,987.47s-1.2,13.88,1.73,15.33l37.54-.08s0-4.33-6-5.3-16.63-4.49-18.42-12.35S219.82,987.47,219.82,987.47Z"/><path class="cls-34" d="M251.51,791.44s-2,24.32-4.3,53.57c-3.17,39.72-7,88.51-7.35,97.75-.65,16-3.26,41.73-3.26,41.73s-6.19,6.1-18.58,3.53c0,0-11-36.65-14.19-75.43l-.15-1.92c-2.93-39.48-7.49-122.6-7.49-122.6Z"/><path class="cls-35" d="M251.51,791.44s-2,24.32-4.3,53.57l-43.38,67.58-.15-1.92c-2.93-39.48-7.49-122.6-7.49-122.6Z"/><path class="cls-34" d="M242.47,794.33s-35.69,88.1-59.16,129.5-30.8,52.95-30.8,52.95-13.45-5.29-14.67-8.9c0,0,9-79.93,24.69-99.42,8.88-11,19.32-44,19.8-55.6s3.18-34.42,3.18-34.42Z"/><path class="cls-36" d="M182.79,783c-.06,1.48,3.1,3.17,4.49,3.8,10.34,4.53,20,7.7,30.9,8.75,12.9,1.32,28.16-1.58,33.41-1.48a2.19,2.19,0,0,0,1.45-.58c.37-.26.64-15.81.37-35.37,0-.8,0-1.59,0-2.38v-.26c-.11-7.65-.38-15.66-.75-23.67-.75-17.61-2.14-34.59-4.5-44-2.84-11.07-9.26-18.4-15.1-23.72l-4.82-4.22a23.13,23.13,0,0,1-15-1.79c-5.57-2.69-11.57-5.59-12.53-4.85-7.28,5.32-12.21,17.29-14.83,32.58a169.88,169.88,0,0,0-2.2,29c0,3.8.11,7.7.32,11.55a363.13,363.13,0,0,1-.75,49.5C183,778.89,182.84,781.26,182.79,783Z"/><path class="cls-37" d="M183.21,782c84.57-.17,15.6-91.76,15.6-91.76l-13.7-4.45a266.68,266.68,0,0,0-1.59,31c0,4.06.08,8.23.24,12.34C184.68,751.41,183.76,770.78,183.21,782Z"/><path class="cls-36" d="M200.68,653.08s-14.58,6.9-21.56,17.51c-10.85,16.46-23.41,76.45-23.64,82s9.17,44.77,9.17,44.77,9.54-.63,12-5.44c0,0-1.91-40.3-.7-42.89s39.76-54,35.42-65S200.68,653.08,200.68,653.08Z"/><path class="cls-24" d="M312.61,676.56s-.79-3.13,1.38-4.53,4.17-5.24,5.09-4.72c1.89,1.07-1,4.41-.5,8.58C318.77,677.35,315.37,681.17,312.61,676.56Z"/></svg>